<?xml version="1.0" standalone="no"?>
<!DOCTYPE svg PUBLIC "-//W3C//DTD SVG 20010904//EN"
 "http://www.w3.org/TR/2001/REC-SVG-20010904/DTD/svg10.dtd">
<svg version="1.0" xmlns="http://www.w3.org/2000/svg"
 width="494.000000pt" height="278.000000pt" viewBox="0 0 494.000000 278.000000"
 preserveAspectRatio="xMidYMid meet">

<g transform="translate(0.000000,278.000000) scale(0.100000,-0.100000)"
fill="#000000" stroke="none">
<path d="M2440 1992 c11 -33 107 -340 215 -680 107 -340 195 -622 195 -625 0
-4 -69 -7 -153 -7 l-154 0 -52 165 -52 165 -229 0 -229 0 -53 -162 -53 -163
-148 -5 -147 -5 294 -294 294 -294 103 7 c538 35 976 366 1150 869 l24 67
-512 512 -512 512 19 -62z"/>
<path d="M2139 1513 l-65 -208 129 -3 c72 -1 132 0 135 3 6 6 -120 415 -128
415 -3 0 -35 -93 -71 -207z"/>
</g>
</svg>
